<svg xmlns="http://www.w3.org/2000/svg" xmlns:svg="http://www.w3.org/2000/svg" xmlns:xlink="http://www.w3.org/1999/xlink" id="svg2" width="28" height="28" version="1.1"><defs id="defs4"><linearGradient id="linearGradient3793"><stop style="stop-color:#555753;stop-opacity:1" id="stop3795" offset="0"/><stop style="stop-color:#000;stop-opacity:1" id="stop3797" offset="1"/></linearGradient><radialGradient id="radialGradient3871" cx="488.838" cy="543.786" r="8.875" fx="488.838" fy="543.786" gradientTransform="matrix(2.0512, 0, 0, 2.0512, -473.079, -629.301)" gradientUnits="userSpaceOnUse" xlink:href="#linearGradient3793"/><radialGradient id="radialGradient3894" cx="488.838" cy="543.786" r="8.875" fx="488.838" fy="543.786" gradientTransform="matrix(2.0512, 0, 0, 2.0512, -473.079, -629.301)" gradientUnits="userSpaceOnUse" xlink:href="#linearGradient3793"/></defs><metadata id="metadata7"/><g id="layer1" transform="translate(0, -1024.36)"><g id="g3863" transform="matrix(1, 0, 0, 0.997177, -518.988, 548.313)"><path id="path3865" d="m 532,480.375 c -6.07513,0 -11,4.92487 -11,11 0,6.07513 4.92487,11 11,11 2.25341,0 4.34949,-0.71247 6.09375,-1.875 0,0 2.08361,1.9375 6.90625,1.9375 0,0 0,0 0,0 0,0 0,0 0,0 -4.5,-3.25 -3.90625,-4.875 -3.90625,-4.875 1.2099,-1.7668 1.90625,-3.88444 1.90625,-6.1875 0,-6.07513 -4.92487,-11 -11,-11 z" style="color:#000;fill:url(#radialGradient3894) #000;fill-opacity:1;fill-rule:nonzero;stroke:#fff;stroke-width:4.00566;stroke-linecap:round;stroke-linejoin:round;stroke-miterlimit:4;stroke-opacity:1;stroke-dasharray:none;marker:none;visibility:visible;display:inline;overflow:visible"/><path style="color:#000;fill:#101010;fill-opacity:1;fill-rule:nonzero;stroke:none;stroke-width:1;marker:none;visibility:visible;display:inline;overflow:visible" id="path3867" d="m 532,480.375 c -6.07513,0 -11,4.92487 -11,11 0,6.07513 4.92487,11 11,11 2.25341,0 4.34949,-0.71247 6.09375,-1.875 0,0 2.08361,1.9375 6.90625,1.9375 -4.5,-3.25 -3.90625,-4.875 -3.90625,-4.875 1.2099,-1.7668 1.90625,-3.88444 1.90625,-6.1875 0,-6.07513 -4.92487,-11 -11,-11 z"/><path style="color:#000;fill:#fff;fill-opacity:1;fill-rule:nonzero;stroke:none;stroke-width:1;marker:none;visibility:visible;display:inline;overflow:visible" id="path3869" d="m 530.28181,487.375 c -0.29406,10e-4 -0.28174,0.28275 -0.28174,0.28275 l 0,8.45479 c 0,0 -0.004,0.24964 0.25,0.24964 l 0.23437,0 4.51556,-4.50919 -4.47058,-4.47894 c 0,0 -0.24761,9.5e-4 -0.24761,9.5e-4 z"/></g></g></svg>